<svg width="270" height="270" viewBox="0 0 270 270" fill="none" xmlns="http://www.w3.org/2000/svg">
<g clip-path="url(#clip0_2_261)">
<path d="M147.255 63.3445C111.565 63.3445 82.603 92.2851 82.603 127.976C82.603 163.687 111.544 192.628 147.255 192.628C182.946 192.628 211.908 163.687 211.908 127.976C211.908 92.2851 182.967 63.3445 147.255 63.3445ZM133.355 51.5531H161.198C162.485 51.5531 163.687 50.9203 164.426 49.8656C165.143 48.8109 165.312 47.482 164.89 46.2585L150.968 8.56401C150.398 7.00308 148.922 5.96948 147.276 5.96948C145.631 5.96948 144.155 7.00308 143.606 8.56401L129.684 46.2796C129.241 47.482 129.41 48.8531 130.148 49.8867C130.866 50.9414 132.068 51.5531 133.355 51.5531ZM211.148 83.7843C211.598 84.2325 212.149 84.566 212.755 84.7569C213.361 84.9478 214.003 84.9904 214.629 84.8812C215.894 84.6492 216.97 83.8265 217.498 82.6664L234.309 46.1531C235.005 44.6554 234.689 42.9046 233.529 41.7445C232.369 40.5632 230.597 40.2468 229.099 40.9429L192.586 57.7546C191.426 58.3031 190.582 59.3578 190.371 60.6234C190.139 61.889 190.561 63.1757 191.447 64.1039L211.148 83.7843ZM266.688 124.284L228.951 110.384C227.749 109.941 226.399 110.109 225.344 110.848C224.29 111.586 223.657 112.767 223.657 114.075L223.678 141.898C223.678 143.184 224.311 144.387 225.366 145.125C226.041 145.568 226.821 145.821 227.601 145.821C228.066 145.821 228.53 145.737 228.951 145.568L266.667 131.646C267.421 131.366 268.072 130.863 268.532 130.203C268.992 129.544 269.239 128.759 269.241 127.955C269.262 126.33 268.228 124.854 266.688 124.284ZM217.476 173.306C216.928 172.146 215.873 171.302 214.608 171.07C213.342 170.859 212.034 171.26 211.127 172.167L191.447 191.848C190.54 192.755 190.139 194.041 190.35 195.307C190.561 196.573 191.405 197.648 192.565 198.176L229.078 215.009C229.605 215.262 230.154 215.367 230.723 215.367C231.736 215.367 232.748 214.966 233.487 214.228C234.647 213.047 234.984 211.296 234.267 209.798L217.476 173.306ZM161.177 204.398L133.333 204.419C132.047 204.419 130.844 205.052 130.127 206.107C129.389 207.162 129.22 208.512 129.663 209.693L143.585 247.409C143.86 248.164 144.361 248.816 145.019 249.277C145.678 249.739 146.462 249.986 147.266 249.986C148.07 249.986 148.854 249.739 149.513 249.277C150.171 248.816 150.672 248.164 150.947 247.409L164.869 209.672C165.312 208.469 165.143 207.119 164.405 206.086C163.666 205.01 162.464 204.398 161.177 204.398ZM83.3835 172.167C82.4765 171.26 81.1897 170.859 79.9241 171.07C78.6585 171.302 77.5827 172.146 77.0554 173.306L60.2226 209.819C59.9498 210.419 59.8311 211.077 59.8774 211.734C59.9238 212.391 60.1335 213.027 60.4877 213.582C60.8419 214.137 61.3293 214.595 61.9056 214.915C62.4818 215.234 63.1287 215.404 63.7874 215.409C64.3569 215.409 64.9054 215.283 65.4327 215.051L101.946 198.218C103.127 197.669 103.95 196.594 104.182 195.328C104.414 194.062 103.992 192.776 103.085 191.869L83.3835 172.167ZM66.9304 145.821C67.9711 145.81 68.9659 145.39 69.6999 144.652C70.4339 143.914 70.8483 142.917 70.8538 141.877L70.8327 114.054C70.8308 113.421 70.6764 112.797 70.3827 112.237C70.0889 111.676 69.6644 111.194 69.1451 110.832C68.6257 110.47 68.0268 110.238 67.399 110.156C66.7712 110.075 66.1329 110.145 65.5382 110.362L27.8015 124.284C26.2616 124.854 25.228 126.33 25.228 127.976C25.228 129.6 26.2405 131.077 27.8015 131.646L65.5382 145.547C66.0022 145.737 66.4663 145.821 66.9304 145.821ZM77.0554 82.6453C77.3217 83.2192 77.7223 83.7206 78.2233 84.107C78.7244 84.4934 79.3111 84.7535 79.9339 84.8652C80.5567 84.977 81.1972 84.9371 81.8013 84.7489C82.4054 84.5608 82.9554 84.2299 83.4046 83.7843L103.085 64.0828C103.529 63.6347 103.858 63.0864 104.046 62.4841C104.233 61.8818 104.272 61.2433 104.16 60.6226C104.049 60.0019 103.789 59.4172 103.404 58.918C103.018 58.4188 102.518 58.0198 101.946 57.7546L65.4116 40.9218C63.914 40.2257 62.1632 40.5421 61.003 41.7234C59.8429 42.8835 59.5265 44.6343 60.2226 46.132L77.0554 82.6453Z" fill="#FFB74D"/>
<path d="M188.789 173.791C188.768 173.791 188.768 173.791 188.789 173.791C188.768 173.665 188.789 173.559 188.789 173.433C188.789 156.98 175.458 143.648 159.005 143.648C156.895 143.648 154.828 143.88 152.824 144.302C146.918 129.938 132.806 119.812 116.311 119.812C103.929 119.812 92.8757 125.529 85.6406 134.452C80.9789 132.089 75.7265 130.718 70.1367 130.718C52.3125 130.718 37.6734 144.302 35.9648 161.684C16.5586 162.696 0.991367 178.58 0.738242 198.281C0.464023 218.827 16.9171 235.702 37.4625 235.955C39.0656 235.976 40.6265 235.87 42.1664 235.68C50.0976 252.408 67.1414 263.988 86.9062 263.988C98.8242 263.988 109.751 259.77 118.294 252.766C124.833 257.597 132.869 260.508 141.623 260.508C159.574 260.508 174.677 248.463 179.381 232.031C182.334 233.002 185.498 233.571 188.789 233.571C205.305 233.571 218.679 220.198 218.679 203.681C218.679 187.165 205.284 173.791 188.789 173.791Z" fill="#E3EBEE"/>
<path d="M206.339 179.487C213.11 186.321 208.322 202.015 203.66 207.12C194.505 217.16 177.673 214.819 170.923 213.363C169.087 212.962 168.792 213.11 168.201 213.469C167.674 213.785 167.421 214.312 166.851 215.536C164.679 220.219 159.068 229.31 147.213 232.959C134.873 236.777 123.23 230.977 117.766 227.496C115.699 226.188 115.615 226.146 114.687 226.167C113.737 226.167 112.809 226.863 111.691 227.749C106.776 231.63 95.5124 238.465 78.1733 237.473C61.1718 236.503 51.4265 226.02 48.0937 220.62C47.4608 219.586 46.7647 218.721 45.9843 218.637C45.0772 218.552 44.0648 219.48 43.2843 220.24C36.0491 227.285 13.289 229.395 5.71631 217.392C13.3944 229.711 25.2702 235.807 37.4413 235.955C39.0444 235.976 40.6054 235.87 42.1452 235.68C50.0765 252.408 67.1202 263.988 86.8851 263.988C98.803 263.988 109.73 259.77 118.273 252.766C124.812 257.597 132.848 260.508 141.602 260.508C159.553 260.508 174.656 248.463 179.36 232.031C182.313 233.002 185.477 233.571 188.768 233.571C205.284 233.571 218.658 220.198 218.658 203.681C218.679 194.885 214.249 184.971 206.339 179.487Z" fill="#B9CDD2"/>
</g>
<defs>
<clipPath id="clip0_2_261">
<rect width="270" height="270" fill="white"/>
</clipPath>
</defs>
</svg>
