<svg width="20" height="26" viewBox="0 0 20 26" fill="none" xmlns="http://www.w3.org/2000/svg">
<path fill-rule="evenodd" clip-rule="evenodd" d="M10.4114 25.8684L10.4143 25.8669L10.4214 25.8619L10.4429 25.8453L10.5271 25.7839C10.5986 25.7304 10.7029 25.6524 10.8343 25.5499C11.0971 25.3462 11.47 25.0465 11.915 24.6615C13.0832 23.6519 14.1754 22.5559 15.1829 21.3826C17.5457 18.6193 20 14.6751 20 10.1662C20 7.47227 18.9471 4.88666 17.0729 2.97995C16.1465 2.03627 15.0446 1.28716 13.8308 0.775737C12.6169 0.264315 11.315 0.000677701 10 0C8.68504 0.000583094 7.38317 0.264106 6.16932 0.775404C4.95547 1.2867 3.85361 2.03568 2.92714 2.97923C1.05102 4.89029 -0.0012593 7.4742 1.13101e-06 10.1669C1.13101e-06 14.6751 2.45429 18.6193 4.81714 21.3826C5.82455 22.5559 6.91685 23.6519 8.085 24.6615C8.53072 25.0465 8.90286 25.3462 9.16572 25.5499C9.29464 25.6503 9.42489 25.749 9.55643 25.846L9.57929 25.8619L9.58572 25.8669L9.58857 25.8684C9.835 26.0439 10.165 26.0439 10.4114 25.8684ZM13.5714 10.1113C13.5714 11.0691 13.1952 11.9876 12.5254 12.6648C11.8556 13.342 10.9472 13.7225 10 13.7225C9.0528 13.7225 8.14439 13.342 7.47462 12.6648C6.80485 11.9876 6.42857 11.0691 6.42857 10.1113C6.42857 9.15358 6.80485 8.23506 7.47462 7.55783C8.14439 6.8806 9.0528 6.50014 10 6.50014C10.9472 6.50014 11.8556 6.8806 12.5254 7.55783C13.1952 8.23506 13.5714 9.15358 13.5714 10.1113Z" fill="white"/>
</svg>
