<svg width="270" height="270" viewBox="0 0 270 270" fill="none" xmlns="http://www.w3.org/2000/svg">
<path d="M62.8594 165.649C62.3742 165.459 61.868 165.375 61.3406 165.417C58.3242 165.628 42.5672 179.677 38.4328 189.823C35.6274 196.72 38.9602 204.652 45.8789 207.457C49.2083 208.803 52.9353 208.775 56.2442 207.38C59.553 205.984 62.1744 203.335 63.5344 200.011C66.6141 192.354 67.4789 167.548 62.8594 165.649ZM88.7203 215.283C88.2352 215.072 87.7078 214.987 87.1805 215.03C84.1641 215.241 68.407 229.289 64.2727 239.456C61.4672 246.354 64.8 254.285 71.7188 257.091C75.0481 258.437 78.7751 258.409 82.084 257.013C85.3929 255.618 88.0142 252.968 89.3742 249.645C92.4961 241.966 93.3399 217.16 88.7203 215.283ZM140.716 174.382C140.231 174.192 139.725 174.108 139.198 174.15C136.181 174.361 120.424 188.409 116.29 198.555C113.484 205.474 116.817 213.384 123.736 216.19C130.655 218.995 138.565 215.662 141.37 208.744C144.492 201.087 145.336 176.28 140.716 174.382ZM169.383 219.544C168.898 219.354 168.391 219.27 167.864 219.312C164.848 219.523 149.07 233.571 144.935 243.717C142.13 250.615 145.463 258.546 152.381 261.352C159.3 264.157 167.231 260.824 170.037 253.905C173.159 246.248 174.002 221.442 169.383 219.544ZM214.186 176.491C213.701 176.302 213.173 176.217 212.646 176.259C209.63 176.47 193.852 190.519 189.717 200.665C186.912 207.584 190.245 215.494 197.163 218.299C204.082 221.105 211.992 217.772 214.798 210.853C217.941 203.175 218.784 178.369 214.186 176.491Z" fill="#70B2E2"/>
<path d="M227.644 63.2602C227.623 63.1125 227.644 62.9859 227.644 62.8383C227.644 43.6641 212.098 28.0969 192.902 28.0969C190.434 28.0969 188.03 28.3711 185.709 28.8563C178.833 12.1078 162.38 0.295319 143.142 0.295319C128.693 0.295319 115.826 6.96094 107.388 17.3602C101.791 14.5033 95.5955 13.0142 89.311 13.0149C68.5336 13.0149 51.4477 28.8563 49.4649 49.1063C26.8524 50.3086 8.73283 68.8289 8.43752 91.8211C8.12111 115.763 27.2953 135.422 51.2367 135.738C53.093 135.759 54.9281 135.633 56.7211 135.422C65.9813 154.934 85.8305 168.434 108.865 168.434C122.766 168.434 135.506 163.519 145.463 155.334C153.077 160.966 162.464 164.341 172.673 164.341C193.598 164.341 211.212 150.293 216.696 131.14C220.155 132.279 223.826 132.933 227.665 132.933C246.902 132.933 262.512 117.345 262.512 98.0859C262.491 78.8484 246.881 63.2602 227.644 63.2602Z" fill="#E3EBEE"/>
<path d="M248.105 69.9047C255.994 77.8781 250.425 96.1664 244.983 102.115C234.309 113.822 214.692 111.08 206.824 109.392C204.694 108.928 204.356 109.097 203.66 109.519C203.048 109.898 202.753 110.51 202.078 111.945C199.547 117.408 193.008 127.997 179.191 132.258C164.805 136.709 151.221 129.938 144.872 125.888C142.467 124.348 142.362 124.327 141.265 124.327C140.168 124.327 139.071 125.149 137.763 126.183C132.026 130.697 118.905 138.67 98.6765 137.51C78.8484 136.371 67.5 124.137 63.6187 117.872C62.8804 116.67 62.0578 115.657 61.1508 115.552C60.0961 115.446 58.9148 116.543 58.0078 117.408C49.5703 125.634 23.0344 128.081 14.2172 114.096C23.1609 128.461 36.9984 135.57 51.1945 135.738C53.0508 135.759 54.8859 135.633 56.6789 135.422C65.939 154.934 85.7883 168.434 108.823 168.434C122.723 168.434 135.464 163.519 145.42 155.334C153.035 160.966 162.422 164.341 172.631 164.341C193.556 164.341 211.17 150.293 216.654 131.14C220.113 132.279 223.784 132.933 227.623 132.933C246.86 132.933 262.47 117.345 262.47 98.0859C262.491 87.8344 257.323 76.275 248.105 69.9047Z" fill="#B9CDD2"/>
</svg>
