<svg width="270" height="270" viewBox="0 0 270 270" fill="none" xmlns="http://www.w3.org/2000/svg">
<path d="M58.2187 199.167C60.0328 202.247 59.5476 205.875 57.1429 207.288C54.7382 208.702 51.3211 207.373 49.507 204.314L30.6914 172.399C28.8773 169.341 29.3625 165.691 31.7672 164.278C34.1718 162.865 37.589 164.194 39.4031 167.273L58.2187 199.167Z" fill="#95C8EC"/>
<path d="M62.9226 180.563C66.4875 180.541 69.3984 182.756 69.4195 185.562C69.4406 188.346 66.5718 190.645 63.0281 190.666L25.9875 191.004C22.4226 191.025 19.5117 188.81 19.4906 186.005C19.4695 183.22 22.3172 180.921 25.9031 180.9L62.9226 180.563Z" fill="#95C8EC"/>
<path d="M49.1695 167.168C50.9203 164.067 54.3164 162.675 56.7422 164.046C59.1679 165.417 59.7164 169.045 57.9656 172.146L39.7406 204.398C37.9898 207.499 34.5937 208.913 32.168 207.541C29.7422 206.17 29.1937 202.542 30.9445 199.441L49.1695 167.168ZM95.9133 258.799C97.7273 261.879 97.2422 265.507 94.8375 266.92C92.4328 268.334 89.0156 267.005 87.2015 263.925L68.407 232.031C66.5929 228.973 67.0781 225.323 69.4828 223.91C71.8875 222.497 75.3047 223.826 77.1187 226.905L95.9133 258.799Z" fill="#95C8EC"/>
<path d="M100.638 240.195C104.203 240.173 107.114 242.388 107.135 245.194C107.156 247.978 104.309 250.277 100.744 250.298L63.703 250.657C60.1382 250.678 57.2273 248.442 57.2062 245.658C57.1851 242.873 60.0327 240.574 63.5976 240.553L100.638 240.195Z" fill="#95C8EC"/>
<path d="M86.864 226.8C88.6148 223.699 92.0108 222.307 94.4366 223.678C96.8624 225.049 97.4108 228.677 95.6601 231.778L77.4351 264.03C75.6843 267.131 72.2882 268.545 69.8624 267.152C67.4366 265.781 66.8882 262.153 68.639 259.052L86.864 226.8ZM148.753 219.143C150.567 222.202 150.082 225.851 147.677 227.264C145.273 228.677 141.855 227.348 140.041 224.29L121.247 192.375C119.433 189.316 119.918 185.667 122.323 184.254C124.727 182.841 128.144 184.17 129.959 187.249L148.753 219.143Z" fill="#95C8EC"/>
<path d="M153.478 200.538C157.022 200.496 159.933 202.732 159.975 205.538C159.996 208.322 157.148 210.621 153.584 210.642L116.543 210.98C112.978 211.022 110.067 208.786 110.046 206.002C110.025 203.217 112.873 200.918 116.459 200.897L153.478 200.538Z" fill="#95C8EC"/>
<path d="M139.725 187.144C141.476 184.043 144.872 182.651 147.298 184.022C149.723 185.393 150.272 189.021 148.521 192.122L130.296 224.374C128.545 227.475 125.149 228.888 122.723 227.496C120.298 226.125 119.749 222.497 121.5 219.396L139.725 187.144ZM238.929 203.386C240.743 206.445 240.258 210.094 237.853 211.507C235.448 212.92 232.031 211.591 230.217 208.512L211.401 176.597C209.587 173.538 210.073 169.889 212.477 168.476C214.882 167.063 218.299 168.391 220.113 171.471L238.929 203.386Z" fill="#95C8EC"/>
<path d="M243.633 184.781C247.198 184.739 250.109 186.975 250.13 189.78C250.151 192.565 247.303 194.864 243.738 194.885L206.698 195.223C203.133 195.244 200.222 193.029 200.201 190.223C200.18 187.439 203.048 185.14 206.613 185.098L243.633 184.781Z" fill="#95C8EC"/>
<path d="M229.88 171.387C231.63 168.286 235.027 166.894 237.452 168.265C239.899 169.636 240.427 173.264 238.676 176.365L220.451 208.617C218.7 211.718 215.304 213.131 212.878 211.76C210.452 210.389 209.904 206.761 211.655 203.66L229.88 171.387ZM198.703 258.694C200.517 261.752 200.032 265.402 197.627 266.815C195.223 268.228 191.805 266.899 189.991 263.82L171.176 231.905C169.362 228.846 169.847 225.218 172.252 223.784C174.656 222.37 178.073 223.699 179.887 226.779L198.703 258.694Z" fill="#95C8EC"/>
<path d="M203.407 240.089C206.972 240.068 209.883 242.283 209.904 245.088C209.925 247.873 207.077 250.172 203.512 250.193L166.472 250.53C162.907 250.552 159.996 248.337 159.975 245.531C159.954 242.747 162.823 240.448 166.387 240.405L203.407 240.089Z" fill="#95C8EC"/>
<path d="M189.654 226.695C191.405 223.594 194.801 222.202 197.227 223.573C199.652 224.944 200.201 228.572 198.45 231.673L180.225 263.925C178.474 267.026 175.078 268.439 172.652 267.047C170.227 265.676 169.678 262.048 171.429 258.947L189.654 226.695Z" fill="#95C8EC"/>
<path d="M231.947 66.8883H231.926C231.926 66.7406 231.947 66.593 231.947 66.4453C231.947 46.2797 215.599 29.9109 195.412 29.9109C192.818 29.9109 190.287 30.1852 187.84 30.7125C180.605 13.1203 163.308 0.696106 143.079 0.696106C127.891 0.696106 114.349 7.69923 105.49 18.6469C99.7734 15.757 93.3398 14.0695 86.4843 14.0695C64.6312 14.0695 46.6804 30.7125 44.5921 52.0172C20.7984 53.2828 1.72963 72.7734 1.41322 96.9258C1.09682 122.112 21.2414 142.784 46.4273 143.121C48.389 143.142 50.3085 143.016 52.207 142.784C61.9312 163.308 82.8351 177.504 107.051 177.504C121.669 177.504 135.063 172.336 145.526 163.73C153.541 169.657 163.413 173.201 174.129 173.201C196.13 173.201 214.65 158.435 220.409 138.291C224.037 139.493 227.897 140.168 231.926 140.168C252.155 140.168 268.566 123.757 268.566 103.528C268.587 83.2992 252.176 66.8883 231.947 66.8883Z" fill="#E3EBEE"/>
<path d="M253.463 73.8914C261.752 82.2656 255.888 101.503 250.172 107.768C238.95 120.066 218.32 117.197 210.052 115.425C207.816 114.94 207.457 115.109 206.719 115.552C206.065 115.952 205.77 116.585 205.052 118.083C202.373 123.82 195.518 134.958 180.984 139.451C165.839 144.134 151.58 137.004 144.893 132.743C142.362 131.14 142.256 131.098 141.096 131.098C139.936 131.119 138.776 131.963 137.426 133.038C131.393 137.784 117.598 146.159 96.3352 144.956C75.4735 143.754 63.5555 130.908 59.4633 124.305C58.6829 123.04 57.8391 121.985 56.8688 121.88C55.7508 121.774 54.5063 122.913 53.5782 123.841C44.6977 132.49 16.7907 135.063 7.53052 120.361C16.9383 135.464 31.493 142.931 46.4274 143.121C48.3891 143.142 50.3086 143.016 52.2071 142.784C61.9313 163.308 82.8352 177.504 107.051 177.504C121.669 177.504 135.063 172.336 145.526 163.73C153.541 169.657 163.413 173.201 174.129 173.201C196.13 173.201 214.65 158.435 220.409 138.291C224.037 139.493 227.897 140.168 231.926 140.168C252.155 140.168 268.566 123.757 268.566 103.528C268.587 92.7492 263.166 80.5992 253.463 73.8914Z" fill="#B9CDD2"/>
</svg>
