<svg width="270" height="270" viewBox="0 0 270 270" fill="none" xmlns="http://www.w3.org/2000/svg">
<path d="M135 63.9984C95.7867 63.9984 63.9984 95.7867 63.9984 134.979C63.9984 174.192 95.7867 205.98 135 205.98C174.213 205.98 206.002 174.192 206.002 134.979C206.002 95.7867 174.213 63.9984 135 63.9984ZM119.728 51.068H150.293C151.706 51.068 153.014 50.3719 153.837 49.2117C154.638 48.0727 154.828 46.575 154.343 45.2461L139.05 3.86016C138.417 2.15157 136.814 1.0336 135 1.0336C133.186 1.0336 131.583 2.17266 130.95 3.86016L115.657 45.2672C115.172 46.5961 115.362 48.0727 116.163 49.2328C116.986 50.393 118.315 51.068 119.728 51.068ZM205.158 86.4633C205.959 87.2859 207.077 87.7289 208.195 87.7289C208.448 87.7289 208.702 87.7078 208.955 87.6656C210.347 87.4125 211.507 86.5055 212.119 85.2188L230.597 45.1195C231.356 43.4742 230.998 41.5547 229.732 40.268C228.445 38.9813 226.505 38.6438 224.859 39.382L184.781 57.8813C183.495 58.4719 182.587 59.6531 182.334 61.0453C182.081 62.4375 182.545 63.8508 183.516 64.8633L205.158 86.4633ZM266.161 130.95L224.733 115.678C223.404 115.193 221.927 115.383 220.767 116.184C219.607 116.986 218.932 118.294 218.932 119.707L218.953 150.272C218.953 151.685 219.649 153.014 220.809 153.816C221.548 154.301 222.412 154.575 223.277 154.575C223.784 154.575 224.29 154.491 224.775 154.301L266.203 139.029C267.891 138.417 269.03 136.793 269.03 134.958C268.987 133.186 267.87 131.583 266.161 130.95ZM212.119 184.781C211.827 184.149 211.387 183.596 210.837 183.17C210.286 182.744 209.64 182.457 208.955 182.334C207.562 182.102 206.128 182.545 205.158 183.537L183.537 205.158C182.545 206.149 182.081 207.584 182.334 208.976C182.587 210.347 183.495 211.549 184.781 212.14L224.88 230.618C225.45 230.892 226.062 230.998 226.695 230.998C227.812 230.998 228.909 230.555 229.732 229.732C231.019 228.445 231.356 226.526 230.597 224.88L212.119 184.781ZM150.272 218.911L119.707 218.932C118.294 218.932 116.986 219.628 116.184 220.788C115.383 221.948 115.193 223.425 115.657 224.733L130.95 266.161C131.583 267.848 133.186 268.988 135 268.988C136.814 268.988 138.417 267.848 139.05 266.161L154.343 224.733C154.828 223.404 154.638 221.927 153.837 220.767C153.014 219.607 151.706 218.911 150.272 218.911ZM64.8422 183.537C63.8508 182.545 62.4375 182.102 61.0453 182.334C59.6531 182.588 58.4718 183.495 57.8812 184.781L39.4031 224.88C38.6437 226.526 39.0023 228.466 40.289 229.732C40.9115 230.356 41.7108 230.774 42.5786 230.929C43.4464 231.083 44.3408 230.968 45.1406 230.597L85.2398 212.098C85.8723 211.806 86.4251 211.366 86.8511 210.816C87.2771 210.265 87.5637 209.619 87.6867 208.934C87.9398 207.541 87.4758 206.128 86.4843 205.137L64.8422 183.537ZM46.7648 154.596C47.6297 154.596 48.4945 154.322 49.2328 153.816C50.3929 153.014 51.089 151.685 51.089 150.272L51.0679 119.707C51.0681 119.012 50.9005 118.328 50.5794 117.712C50.2583 117.096 49.7932 116.567 49.2237 116.169C48.6542 115.772 47.997 115.517 47.3082 115.428C46.6194 115.339 45.9192 115.418 45.2672 115.657L3.83903 130.95C3.00954 131.254 2.29344 131.806 1.78755 132.53C1.28166 133.254 1.01038 134.117 1.01038 135C1.01038 135.883 1.28166 136.746 1.78755 137.47C2.29344 138.194 3.00954 138.746 3.83903 139.05L45.2883 154.322C45.7734 154.512 46.2586 154.596 46.7648 154.596ZM57.9023 85.2188C58.1944 85.8508 58.6349 86.403 59.1861 86.8283C59.7374 87.2537 60.3833 87.5396 61.0688 87.6618C61.7543 87.784 62.4591 87.7388 63.1234 87.5301C63.7877 87.3215 64.3918 86.9555 64.8843 86.4633L86.4843 64.8422C87.4758 63.8297 87.9187 62.4164 87.6656 61.0242C87.4125 59.6531 86.5054 58.4719 85.2187 57.8813L45.0984 39.4031C43.4531 38.6438 41.5336 39.0024 40.2468 40.2891C38.9601 41.5758 38.6226 43.4953 39.382 45.1406L57.9023 85.2188Z" fill="#FCC21B"/>
</svg>
