<svg width="20" height="36" viewBox="0 0 20 36" fill="none" xmlns="http://www.w3.org/2000/svg">
<path d="M10 36C7.23333 36 4.87467 35.0247 2.924 33.074C0.973334 31.1233 -0.00133197 28.7653 1.36612e-06 26C1.36612e-06 24.4 0.350001 22.908 1.05 21.524C1.75 20.14 2.73333 18.9653 4 18V6C4 4.33333 4.58333 2.91667 5.75 1.75C6.91667 0.583333 8.33333 0 10 0C11.6667 0 13.0833 0.583333 14.25 1.75C15.4167 2.91667 16 4.33333 16 6V18C17.2667 18.9667 18.25 20.142 18.95 21.526C19.65 22.91 20 24.4013 20 26C20 28.7667 19.0247 31.1253 17.074 33.076C15.1233 35.0267 12.7653 36.0013 10 36ZM8 14H12V6C12 5.43333 11.808 4.958 11.424 4.574C11.04 4.19 10.5653 3.99867 10 4C9.43333 4 8.958 4.192 8.574 4.576C8.19 4.96 7.99867 5.43467 8 6V14Z" fill="#1395D8"/>
</svg>
